<svg id="visual" viewBox="0 0 960 300" width="960" height="300" xmlns="http://www.w3.org/2000/svg" xmlns:xlink="http://www.w3.org/1999/xlink" version="1.1"><rect x="0" y="0" width="960" height="300" fill="#202731"></rect><path d="M0 218L20 216.7C40 215.3 80 212.7 120 217.2C160 221.7 200 233.3 240 234.3C280 235.3 320 225.7 360 226.5C400 227.3 440 238.7 480 240C520 241.3 560 232.7 600 227.7C640 222.7 680 221.3 720 219.3C760 217.3 800 214.7 840 219.8C880 225 920 238 940 244.5L960 251L960 0L940 0C920 0 880 0 840 0C800 0 760 0 720 0C680 0 640 0 600 0C560 0 520 0 480 0C440 0 400 0 360 0C320 0 280 0 240 0C200 0 160 0 120 0C80 0 40 0 20 0L0 0Z" fill="#fa7268"></path><path d="M0 205L20 205.8C40 206.7 80 208.3 120 201.2C160 194 200 178 240 170.8C280 163.7 320 165.3 360 170.7C400 176 440 185 480 186.8C520 188.7 560 183.3 600 183.7C640 184 680 190 720 195.2C760 200.3 800 204.7 840 204C880 203.3 920 197.7 940 194.8L960 192L960 0L940 0C920 0 880 0 840 0C800 0 760 0 720 0C680 0 640 0 600 0C560 0 520 0 480 0C440 0 400 0 360 0C320 0 280 0 240 0C200 0 160 0 120 0C80 0 40 0 20 0L0 0Z" fill="#f3665b"></path><path d="M0 138L20 138.3C40 138.7 80 139.3 120 136.7C160 134 200 128 240 126.7C280 125.3 320 128.7 360 131.2C400 133.7 440 135.3 480 139.5C520 143.7 560 150.3 600 148.3C640 146.3 680 135.7 720 131.2C760 126.7 800 128.3 840 132.2C880 136 920 142 940 145L960 148L960 0L940 0C920 0 880 0 840 0C800 0 760 0 720 0C680 0 640 0 600 0C560 0 520 0 480 0C440 0 400 0 360 0C320 0 280 0 240 0C200 0 160 0 120 0C80 0 40 0 20 0L0 0Z" fill="#ec594d"></path><path d="M0 109L20 106C40 103 80 97 120 93.2C160 89.3 200 87.7 240 84.8C280 82 320 78 360 82.3C400 86.7 440 99.3 480 105.8C520 112.3 560 112.7 600 108.3C640 104 680 95 720 89.7C760 84.3 800 82.7 840 83.7C880 84.7 920 88.3 940 90.2L960 92L960 0L940 0C920 0 880 0 840 0C800 0 760 0 720 0C680 0 640 0 600 0C560 0 520 0 480 0C440 0 400 0 360 0C320 0 280 0 240 0C200 0 160 0 120 0C80 0 40 0 20 0L0 0Z" fill="#e54c3f"></path><path d="M0 44L20 44.5C40 45 80 46 120 45.3C160 44.7 200 42.3 240 40.5C280 38.7 320 37.3 360 37C400 36.7 440 37.3 480 42.3C520 47.3 560 56.7 600 61.2C640 65.7 680 65.3 720 65.5C760 65.7 800 66.3 840 61.3C880 56.3 920 45.7 940 40.3L960 35L960 0L940 0C920 0 880 0 840 0C800 0 760 0 720 0C680 0 640 0 600 0C560 0 520 0 480 0C440 0 400 0 360 0C320 0 280 0 240 0C200 0 160 0 120 0C80 0 40 0 20 0L0 0Z" fill="#dd3f31"></path></svg>